<?xml version="1.0" encoding="UTF-8" standalone="no"?>
<svg
   width="50"
   height="50"
   viewBox="0 0 50.000001 50"
   fill="none"
   version="1.1"
   id="svg7"
   sodipodi:docname="favicon.svg"
   inkscape:version="1.4 (unknown)"
   xmlns:inkscape="http://www.inkscape.org/namespaces/inkscape"
   xmlns:sodipodi="http://sodipodi.sourceforge.net/DTD/sodipodi-0.dtd"
   xmlns="http://www.w3.org/2000/svg"
   xmlns:svg="http://www.w3.org/2000/svg">
  <defs
     id="defs7" />
  <sodipodi:namedview
     id="namedview7"
     pagecolor="#505050"
     bordercolor="#eeeeee"
     borderopacity="1"
     inkscape:showpageshadow="0"
     inkscape:pageopacity="0"
     inkscape:pagecheckerboard="0"
     inkscape:deskcolor="#505050"
     inkscape:zoom="3.6632693"
     inkscape:cx="75.752006"
     inkscape:cy="31.256233"
     inkscape:window-width="1707"
     inkscape:window-height="993"
     inkscape:window-x="0"
     inkscape:window-y="0"
     inkscape:window-maximized="1"
     inkscape:current-layer="svg7" />
  <g
     id="g7"
     transform="translate(0.70350543,5.8365952)">
    <path
       d="m 27.480606,3.966197 c 0,3.2411295 0,6.482379 0,9.723629 0,1.433366 -0.09345,2.810205 -0.172345,4.230101 -0.03644,0.656068 -0.395445,1.633133 -0.650776,2.239529 -0.230796,0.548187 -0.723538,1.022047 -0.899612,1.550388"
       stroke="#687350"
       stroke-width="3.60807"
       stroke-linecap="round"
       id="path1" />
    <path
       d="m 3.8797013,17.230786 c 1.7144348,0 2.8921089,0.727146 4.306725,1.636621 0.6012248,0.386424 1.3370065,0.833464 1.9811077,1.119704 0.632963,0.281309 1.10283,0.930401 1.722721,1.205937 1.030465,0.457985 2.086306,0.894561 3.110397,1.378163 0.88987,0.42022 1.703971,0.527861 2.622346,0.823001 1.330295,0.427676 3.118094,0.899612 4.517304,0.899612"
       stroke="#687350"
       stroke-width="3.60807"
       stroke-linecap="round"
       id="path2" />
    <path
       d="m 46.788954,36.509668 c -2.283668,0 -4.569862,0.02934 -6.853289,0 -1.47534,-0.01888 -2.905339,-0.931725 -4.190653,-1.574322 -1.352907,-0.676393 -2.631847,-1.461749 -3.959256,-2.176388 -2.524687,-1.359521 -4.261372,-3.417444 -6.459649,-5.163148 -0.978869,-0.777419 -2.500513,-2.90582 -2.500513,-4.213866"
       stroke="#01291b"
       stroke-width="3.60807"
       stroke-linecap="round"
       id="path5" />
    <path
       d="m 22.825594,23.382065 c 0,-4.617609 -0.416732,-9.142129 -0.416732,-13.7528814 0,-3.1447941 1.429638,-5.1803471 3.542404,-7.2931128 0.750959,-0.7509476 1.030585,-0.6330118 1.794293,-0.1042732 0.82733,0.5728413 1.911435,0.8909528 2.477421,1.7712017 1.071717,1.667169 1.778899,3.3291665 2.141631,5.2789676 0.500319,2.6893351 -0.740858,5.0267631 -1.724899,7.4320231 -0.73328,1.792489 -1.970487,3.357069 -2.975094,5.001026 -0.740737,1.212071 -2.486682,2.688854 -3.797133,3.125671"
       stroke="#01291b"
       stroke-width="3.60807"
       stroke-linecap="round"
       id="path6" />
    <path
       d="m 23.867485,24.840687 c -2.916283,-2.916283 -5.087981,-7.052334 -9.446409,-7.964574 -2.254683,-0.471936 -4.711142,-1.204014 -7.0152918,-1.204014 -0.8335003,0 -1.6670126,0 -2.5005129,0 -0.7992117,0 -1.3426953,0.329538 -2.0837689,0.416733 -1.98547297,0.233682 -0.6039549,2.000554 0.2083781,2.928911 0.8585163,0.981154 1.2217768,2.305436 2.3384505,3.114005 1.4618698,1.058608 2.7947992,2.055277 4.3759037,2.963669 4.1990123,2.412115 9.2017223,1.412319 13.7065183,1.412319"
       stroke="#01291b"
       stroke-width="3.60807"
       stroke-linecap="round"
       id="path7" />
  </g>
</svg>
