<?xml version="1.0" encoding="UTF-8" standalone="no"?>
<svg
   height="32px"
   id="Layer_1"
   style="enable-background:new 0 0 32 32;"
   version="1.1"
   viewBox="0 0 32 32"
   width="32px"
   xml:space="preserve"
   sodipodi:docname="hamburger.svg"
   inkscape:version="1.4.2 (unknown)"
   xmlns:inkscape="http://www.inkscape.org/namespaces/inkscape"
   xmlns:sodipodi="http://sodipodi.sourceforge.net/DTD/sodipodi-0.dtd"
   xmlns="http://www.w3.org/2000/svg"
   xmlns:svg="http://www.w3.org/2000/svg"><defs
     id="defs1" /><sodipodi:namedview
     id="namedview1"
     pagecolor="#505050"
     bordercolor="#eeeeee"
     borderopacity="1"
     inkscape:showpageshadow="0"
     inkscape:pageopacity="0"
     inkscape:pagecheckerboard="0"
     inkscape:deskcolor="#505050"
     inkscape:zoom="11.921875"
     inkscape:cx="9.9397117"
     inkscape:cy="28.141547"
     inkscape:window-width="1707"
     inkscape:window-height="985"
     inkscape:window-x="0"
     inkscape:window-y="0"
     inkscape:window-maximized="1"
     inkscape:current-layer="Layer_1" /><g
     id="g3"
     transform="translate(0,-3)"><path
       d="M 4,10 H 28 C 29.104,10 30,9.104 30,8 30,6.896 29.104,6 28,6 H 4 C 2.896,6 2,6.896 2,8 c 0,1.104 0.896,2 2,2 z"
       id="path1"
       style="fill:#fff1e0;fill-opacity:1"
       sodipodi:nodetypes="sssssss" /><path
       d="M 4.0000003,21 H 28 c 1.104,0 2,-0.896 2,-2 0,-1.104 -0.896,-2 -2,-2 H 4.0000003 c -1.104,0 -2,0.896 -2,2 0,1.104 0.896,2 2,2 z"
       id="path2"
       style="fill:#fff1e0;fill-opacity:1"
       sodipodi:nodetypes="sssssss" /><path
       d="M 4.0000001,32 H 28 c 1.104,0 2,-0.896 2,-2 0,-1.104 -0.896,-2 -2,-2 H 4.0000001 c -1.1039999,0 -1.9999999,0.896 -1.9999999,2 0,1.104 0.896,2 1.9999999,2 z"
       id="path3"
       style="fill:#fff1e0;fill-opacity:1"
       sodipodi:nodetypes="sssssss" /></g></svg>
