<svg width="155" height="52" viewBox="0 0 155 52" fill="none" xmlns="http://www.w3.org/2000/svg">
<path d="M23.3521 11.689C23.3521 14.3839 23.3521 17.0789 23.3521 19.7739C23.3521 20.9657 23.2744 22.1105 23.2088 23.2911C23.1785 23.8366 22.88 24.649 22.6677 25.1532C22.4758 25.609 22.0661 26.003 21.9197 26.4423" stroke="#687350" stroke-width="3" stroke-linecap="round"/>
<path d="M3.72867 22.7181C5.15417 22.7181 6.13337 23.3227 7.30958 24.0789C7.80948 24.4002 8.42126 24.7719 8.95681 25.0099C9.4831 25.2438 9.87378 25.7835 10.3892 26.0126C11.246 26.3934 12.1239 26.7564 12.9754 27.1585C13.7153 27.5079 14.3922 27.5974 15.1558 27.8428C16.2619 28.1984 17.7484 28.5908 18.9118 28.5908" stroke="#687350" stroke-width="3" stroke-linecap="round"/>
<path d="M36.84 10.448C36.84 8.832 37.08 7.68 37.56 6.992C38.04 6.288 38.784 5.936 39.792 5.936C40.448 5.936 40.952 6.104 41.304 6.44C41.672 6.776 41.928 7.224 42.072 7.784C42.216 8.344 42.288 8.968 42.288 9.656C42.288 10.264 42.264 10.976 42.216 11.792C42.184 12.608 42.136 13.44 42.072 14.288C42.024 15.136 41.96 15.928 41.88 16.664H41.976C42.376 14.76 42.76 13.248 43.128 12.128C43.512 10.992 43.904 10.176 44.304 9.68C44.704 9.168 45.128 8.912 45.576 8.912C46.072 8.912 46.52 9.168 46.92 9.68C47.336 10.176 47.736 10.984 48.12 12.104C48.52 13.208 48.944 14.664 49.392 16.472H49.488C49.44 15.688 49.392 14.88 49.344 14.048C49.296 13.216 49.256 12.392 49.224 11.576C49.208 10.744 49.2 9.976 49.2 9.272C49.2 8.216 49.296 7.4 49.488 6.824C49.696 6.248 49.976 5.848 50.328 5.624C50.696 5.4 51.12 5.288 51.6 5.288C52.56 5.288 53.304 5.712 53.832 6.56C54.376 7.408 54.648 8.656 54.648 10.304C54.648 11.392 54.6 12.504 54.504 13.64C54.424 14.776 54.304 15.88 54.144 16.952C53.984 18.024 53.784 19.024 53.544 19.952C53.288 20.976 52.92 21.776 52.44 22.352C51.976 22.912 51.376 23.192 50.64 23.192C50.192 23.192 49.744 23.04 49.296 22.736C48.864 22.432 48.432 21.944 48 21.272C47.584 20.6 47.184 19.712 46.8 18.608C46.432 17.504 46.088 16.152 45.768 14.552H45.648C45.328 16.136 44.976 17.456 44.592 18.512C44.224 19.568 43.832 20.408 43.416 21.032C43 21.64 42.552 22.08 42.072 22.352C41.592 22.608 41.08 22.736 40.536 22.736C39.768 22.736 39.16 22.464 38.712 21.92C38.264 21.376 37.912 20.472 37.656 19.208C37.544 18.616 37.44 17.944 37.344 17.192C37.248 16.424 37.16 15.632 37.08 14.816C37.016 14 36.96 13.216 36.912 12.464C36.864 11.696 36.84 11.024 36.84 10.448ZM63.8514 23.192C61.9314 23.192 60.4034 22.928 59.2674 22.4C58.1314 21.872 57.3074 21.112 56.7954 20.12C56.2834 19.128 56.0274 17.944 56.0274 16.568C56.0274 14.824 56.3794 13.344 57.0834 12.128C57.8034 10.896 58.7794 9.952 60.0114 9.296C61.2594 8.64 62.6674 8.312 64.2354 8.312C66.1074 8.312 67.4754 8.696 68.3394 9.464C69.2194 10.232 69.6594 11.24 69.6594 12.488C69.6594 13.48 69.3874 14.336 68.8434 15.056C68.3154 15.776 67.5714 16.336 66.6114 16.736C65.6674 17.12 64.5714 17.312 63.3234 17.312C62.7314 17.312 62.1474 17.264 61.5714 17.168C61.0114 17.056 60.4994 16.912 60.0354 16.736L60.6114 15.464C60.5634 15.848 60.5394 16.232 60.5394 16.616C60.5394 17.416 60.8194 17.984 61.3794 18.32C61.9394 18.656 62.7154 18.824 63.7074 18.824C64.6034 18.824 65.3554 18.736 65.9634 18.56C66.5714 18.368 67.0994 18.184 67.5474 18.008C68.0114 17.832 68.4434 17.744 68.8434 17.744C69.1154 17.744 69.3874 17.816 69.6594 17.96C69.9474 18.088 70.1794 18.296 70.3554 18.584C70.5474 18.872 70.6434 19.248 70.6434 19.712C70.6434 20.352 70.3794 20.936 69.8514 21.464C69.3394 21.992 68.5794 22.416 67.5714 22.736C66.5634 23.04 65.3234 23.192 63.8514 23.192ZM62.4594 14.96C63.3234 14.96 64.0514 14.76 64.6434 14.36C65.2354 13.944 65.5314 13.448 65.5314 12.872C65.5314 12.456 65.3874 12.12 65.0994 11.864C64.8114 11.608 64.3954 11.48 63.8514 11.48C63.2914 11.48 62.7714 11.592 62.2914 11.816C61.8114 12.024 61.4274 12.296 61.1394 12.632C60.8514 12.968 60.7074 13.344 60.7074 13.76C60.7074 14.144 60.8594 14.44 61.1634 14.648C61.4834 14.856 61.9154 14.96 62.4594 14.96ZM74.931 23.048C74.259 23.048 73.715 22.92 73.299 22.664C72.899 22.392 72.579 21.928 72.339 21.272C72.083 20.568 71.891 19.608 71.763 18.392C71.651 17.176 71.595 15.704 71.595 13.976C71.595 12.936 71.635 11.88 71.715 10.808C71.811 9.736 71.931 8.76 72.075 7.88C72.235 6.984 72.403 6.312 72.579 5.864C72.851 5.192 73.155 4.72 73.491 4.448C73.827 4.16 74.235 4.016 74.715 4.016C75.227 4.016 75.651 4.16 75.987 4.448C76.323 4.736 76.571 5.216 76.731 5.888C76.843 6.416 76.939 7.056 77.019 7.808C77.099 8.544 77.139 9.328 77.139 10.16C77.139 11.152 77.083 12.2 76.971 13.304C76.859 14.392 76.707 15.456 76.515 16.496C76.339 17.536 76.123 18.496 75.867 19.376L74.067 19.472C74.515 19.072 75.019 18.768 75.579 18.56C76.139 18.336 76.659 18.224 77.139 18.224C77.715 18.224 78.163 18.376 78.483 18.68C78.803 18.968 78.963 19.424 78.963 20.048C78.963 20.576 78.779 21.072 78.411 21.536C78.059 22 77.579 22.368 76.971 22.64C76.363 22.912 75.683 23.048 74.931 23.048ZM83.2982 23.048C82.6262 23.048 82.0822 22.92 81.6662 22.664C81.2662 22.392 80.9462 21.928 80.7062 21.272C80.4502 20.568 80.2582 19.608 80.1302 18.392C80.0182 17.176 79.9622 15.704 79.9622 13.976C79.9622 12.936 80.0022 11.88 80.0822 10.808C80.1782 9.736 80.2982 8.76 80.4422 7.88C80.6022 6.984 80.7702 6.312 80.9462 5.864C81.2182 5.192 81.5222 4.72 81.8582 4.448C82.1942 4.16 82.6022 4.016 83.0822 4.016C83.5942 4.016 84.0182 4.16 84.3542 4.448C84.6902 4.736 84.9382 5.216 85.0982 5.888C85.2102 6.416 85.3062 7.056 85.3862 7.808C85.4662 8.544 85.5062 9.328 85.5062 10.16C85.5062 11.152 85.4502 12.2 85.3382 13.304C85.2262 14.392 85.0742 15.456 84.8822 16.496C84.7062 17.536 84.4902 18.496 84.2342 19.376L82.4342 19.472C82.8822 19.072 83.3862 18.768 83.9462 18.56C84.5062 18.336 85.0262 18.224 85.5062 18.224C86.0822 18.224 86.5302 18.376 86.8502 18.68C87.1702 18.968 87.3302 19.424 87.3302 20.048C87.3302 20.576 87.1462 21.072 86.7782 21.536C86.4262 22 85.9462 22.368 85.3382 22.64C84.7302 22.912 84.0502 23.048 83.2982 23.048ZM95.9374 23.192C94.0174 23.192 92.4894 22.928 91.3534 22.4C90.2174 21.872 89.3934 21.112 88.8814 20.12C88.3694 19.128 88.1134 17.944 88.1134 16.568C88.1134 14.824 88.4654 13.344 89.1694 12.128C89.8894 10.896 90.8654 9.952 92.0974 9.296C93.3454 8.64 94.7534 8.312 96.3214 8.312C98.1934 8.312 99.5614 8.696 100.425 9.464C101.305 10.232 101.745 11.24 101.745 12.488C101.745 13.48 101.473 14.336 100.929 15.056C100.401 15.776 99.6574 16.336 98.6974 16.736C97.7534 17.12 96.6574 17.312 95.4094 17.312C94.8174 17.312 94.2334 17.264 93.6574 17.168C93.0974 17.056 92.5854 16.912 92.1214 16.736L92.6974 15.464C92.6494 15.848 92.6254 16.232 92.6254 16.616C92.6254 17.416 92.9054 17.984 93.4654 18.32C94.0254 18.656 94.8014 18.824 95.7934 18.824C96.6894 18.824 97.4414 18.736 98.0494 18.56C98.6574 18.368 99.1854 18.184 99.6334 18.008C100.097 17.832 100.529 17.744 100.929 17.744C101.201 17.744 101.473 17.816 101.745 17.96C102.033 18.088 102.265 18.296 102.441 18.584C102.633 18.872 102.729 19.248 102.729 19.712C102.729 20.352 102.465 20.936 101.937 21.464C101.425 21.992 100.665 22.416 99.6574 22.736C98.6494 23.04 97.4094 23.192 95.9374 23.192ZM94.5454 14.96C95.4094 14.96 96.1374 14.76 96.7294 14.36C97.3214 13.944 97.6174 13.448 97.6174 12.872C97.6174 12.456 97.4734 12.12 97.1854 11.864C96.8974 11.608 96.4814 11.48 95.9374 11.48C95.3774 11.48 94.8574 11.592 94.3774 11.816C93.8974 12.024 93.5134 12.296 93.2254 12.632C92.9374 12.968 92.7934 13.344 92.7934 13.76C92.7934 14.144 92.9454 14.44 93.2494 14.648C93.5694 14.856 94.0014 14.96 94.5454 14.96ZM110.569 7.976C112.217 7.976 113.401 8.256 114.121 8.816C114.857 9.36 115.225 10.072 115.225 10.952C115.225 11.48 115.041 11.92 114.673 12.272C114.321 12.624 113.817 12.8 113.161 12.8C112.665 12.8 112.129 12.72 111.553 12.56C110.977 12.4 110.321 12.32 109.585 12.32C109.121 12.32 108.769 12.408 108.529 12.584C108.289 12.76 108.169 12.984 108.169 13.256C108.169 13.528 108.289 13.752 108.529 13.928C108.769 14.104 109.273 14.232 110.041 14.312C111.241 14.424 112.249 14.624 113.065 14.912C113.881 15.2 114.497 15.64 114.913 16.232C115.329 16.808 115.537 17.608 115.537 18.632C115.537 20.184 114.969 21.32 113.833 22.04C112.697 22.744 111.113 23.096 109.081 23.096C107.721 23.096 106.625 22.968 105.793 22.712C104.977 22.456 104.385 22.096 104.017 21.632C103.649 21.168 103.465 20.624 103.465 20C103.465 19.424 103.657 18.976 104.041 18.656C104.441 18.32 104.905 18.152 105.433 18.152C105.801 18.152 106.193 18.2 106.609 18.296C107.025 18.392 107.465 18.496 107.929 18.608C108.393 18.72 108.865 18.776 109.345 18.776C110.225 18.776 110.665 18.512 110.665 17.984C110.665 17.808 110.617 17.656 110.521 17.528C110.425 17.4 110.241 17.288 109.969 17.192C109.697 17.08 109.281 16.992 108.721 16.928C107.665 16.816 106.753 16.64 105.985 16.4C105.233 16.144 104.641 15.752 104.209 15.224C103.793 14.68 103.585 13.936 103.585 12.992C103.585 11.504 104.193 10.296 105.409 9.368C106.625 8.44 108.345 7.976 110.569 7.976ZM120.095 23.048C119.423 23.048 118.879 22.92 118.463 22.664C118.063 22.392 117.743 21.928 117.503 21.272C117.247 20.568 117.055 19.608 116.927 18.392C116.815 17.176 116.759 15.704 116.759 13.976C116.759 12.936 116.799 11.88 116.879 10.808C116.975 9.736 117.095 8.76 117.239 7.88C117.399 6.984 117.567 6.312 117.743 5.864C118.015 5.192 118.319 4.72 118.655 4.448C118.991 4.16 119.399 4.016 119.879 4.016C120.391 4.016 120.815 4.16 121.151 4.448C121.487 4.736 121.735 5.216 121.895 5.888C122.007 6.416 122.103 7.056 122.183 7.808C122.263 8.544 122.303 9.328 122.303 10.16C122.303 11.152 122.247 12.2 122.135 13.304C122.023 14.392 121.871 15.456 121.679 16.496C121.503 17.536 121.287 18.496 121.031 19.376L119.231 19.472C119.679 19.072 120.183 18.768 120.743 18.56C121.303 18.336 121.823 18.224 122.303 18.224C122.879 18.224 123.327 18.376 123.647 18.68C123.967 18.968 124.127 19.424 124.127 20.048C124.127 20.576 123.943 21.072 123.575 21.536C123.223 22 122.743 22.368 122.135 22.64C121.527 22.912 120.847 23.048 120.095 23.048ZM132.734 23.192C130.814 23.192 129.286 22.928 128.15 22.4C127.014 21.872 126.19 21.112 125.678 20.12C125.166 19.128 124.91 17.944 124.91 16.568C124.91 14.824 125.262 13.344 125.966 12.128C126.686 10.896 127.662 9.952 128.894 9.296C130.142 8.64 131.55 8.312 133.118 8.312C134.99 8.312 136.358 8.696 137.222 9.464C138.102 10.232 138.542 11.24 138.542 12.488C138.542 13.48 138.27 14.336 137.726 15.056C137.198 15.776 136.454 16.336 135.494 16.736C134.55 17.12 133.454 17.312 132.206 17.312C131.614 17.312 131.03 17.264 130.454 17.168C129.894 17.056 129.382 16.912 128.918 16.736L129.494 15.464C129.446 15.848 129.422 16.232 129.422 16.616C129.422 17.416 129.702 17.984 130.262 18.32C130.822 18.656 131.598 18.824 132.59 18.824C133.486 18.824 134.238 18.736 134.846 18.56C135.454 18.368 135.982 18.184 136.43 18.008C136.894 17.832 137.326 17.744 137.726 17.744C137.998 17.744 138.27 17.816 138.542 17.96C138.83 18.088 139.062 18.296 139.238 18.584C139.43 18.872 139.526 19.248 139.526 19.712C139.526 20.352 139.262 20.936 138.734 21.464C138.222 21.992 137.462 22.416 136.454 22.736C135.446 23.04 134.206 23.192 132.734 23.192ZM131.342 14.96C132.206 14.96 132.934 14.76 133.526 14.36C134.118 13.944 134.414 13.448 134.414 12.872C134.414 12.456 134.27 12.12 133.982 11.864C133.694 11.608 133.278 11.48 132.734 11.48C132.174 11.48 131.654 11.592 131.174 11.816C130.694 12.024 130.31 12.296 130.022 12.632C129.734 12.968 129.59 13.344 129.59 13.76C129.59 14.144 129.742 14.44 130.046 14.648C130.366 14.856 130.798 14.96 131.342 14.96ZM143.79 27.776C142.622 27.776 142.038 27.112 142.038 25.784C142.038 25.224 142.198 24.584 142.518 23.864C142.854 23.16 143.31 22.44 143.886 21.704C144.478 20.952 145.15 20.256 145.902 19.616L145.878 19.952C143.974 18.288 142.534 16.752 141.558 15.344C140.582 13.936 140.094 12.576 140.094 11.264C140.094 10.368 140.318 9.672 140.766 9.176C141.23 8.68 141.854 8.432 142.638 8.432C143.758 8.432 144.758 9.112 145.638 10.472C146.534 11.816 147.246 13.84 147.774 16.544H147.87C148.238 13.68 148.814 11.568 149.598 10.208C150.382 8.848 151.31 8.168 152.382 8.168C153.022 8.168 153.502 8.368 153.822 8.768C154.158 9.168 154.326 9.736 154.326 10.472C154.326 10.984 154.238 11.608 154.062 12.344C153.886 13.08 153.63 13.896 153.294 14.792C152.974 15.672 152.582 16.6 152.118 17.576C151.67 18.536 151.166 19.504 150.606 20.48C149.15 23.008 147.894 24.856 146.838 26.024C145.782 27.192 144.766 27.776 143.79 27.776Z" fill="#01291B"/>
<path d="M53.792 46.168C53.024 46.168 52.424 45.976 51.992 45.592C51.56 45.208 51.256 44.576 51.08 43.696C50.92 42.8 50.84 41.616 50.84 40.144C50.84 38.048 50.984 36.248 51.272 34.744C51.576 33.224 52.032 32.024 52.64 31.144C53.376 30.104 54.32 29.368 55.472 28.936C56.64 28.488 57.896 28.264 59.24 28.264C61.4 28.264 62.992 28.744 64.016 29.704C65.04 30.664 65.552 31.92 65.552 33.472C65.552 34.56 65.288 35.48 64.76 36.232C64.248 36.968 63.536 37.52 62.624 37.888C61.712 38.24 60.68 38.408 59.528 38.392V38.488C61.656 39.224 63.168 40.016 64.064 40.864C64.976 41.696 65.432 42.536 65.432 43.384C65.432 44.152 65.176 44.76 64.664 45.208C64.168 45.656 63.488 45.88 62.624 45.88C61.872 45.88 61.16 45.672 60.488 45.256C59.816 44.84 59.136 44.136 58.448 43.144C57.76 42.136 57.016 40.752 56.216 38.992H56.12C56.2 39.312 56.264 39.704 56.312 40.168C56.376 40.616 56.424 41.08 56.456 41.56C56.504 42.024 56.528 42.472 56.528 42.904C56.528 43.96 56.32 44.768 55.904 45.328C55.504 45.888 54.8 46.168 53.792 46.168ZM58.376 35.56C58.856 35.56 59.272 35.488 59.624 35.344C59.992 35.184 60.28 34.968 60.488 34.696C60.712 34.408 60.824 34.08 60.824 33.712C60.824 33.104 60.648 32.616 60.296 32.248C59.944 31.864 59.392 31.672 58.64 31.672C58.144 31.672 57.712 31.768 57.344 31.96C56.976 32.136 56.696 32.384 56.504 32.704C56.312 33.008 56.216 33.336 56.216 33.688C56.216 34.232 56.4 34.68 56.768 35.032C57.152 35.384 57.688 35.56 58.376 35.56ZM74.3124 46.192C72.3924 46.192 70.8644 45.928 69.7284 45.4C68.5924 44.872 67.7684 44.112 67.2564 43.12C66.7444 42.128 66.4884 40.944 66.4884 39.568C66.4884 37.824 66.8404 36.344 67.5444 35.128C68.2644 33.896 69.2404 32.952 70.4724 32.296C71.7204 31.64 73.1284 31.312 74.6964 31.312C76.5684 31.312 77.9364 31.696 78.8004 32.464C79.6804 33.232 80.1204 34.24 80.1204 35.488C80.1204 36.48 79.8484 37.336 79.3044 38.056C78.7764 38.776 78.0324 39.336 77.0724 39.736C76.1284 40.12 75.0324 40.312 73.7844 40.312C73.1924 40.312 72.6084 40.264 72.0324 40.168C71.4724 40.056 70.9604 39.912 70.4964 39.736L71.0724 38.464C71.0244 38.848 71.0004 39.232 71.0004 39.616C71.0004 40.416 71.2804 40.984 71.8404 41.32C72.4004 41.656 73.1764 41.824 74.1684 41.824C75.0644 41.824 75.8164 41.736 76.4244 41.56C77.0324 41.368 77.5604 41.184 78.0084 41.008C78.4724 40.832 78.9044 40.744 79.3044 40.744C79.5764 40.744 79.8484 40.816 80.1204 40.96C80.4084 41.088 80.6404 41.296 80.8164 41.584C81.0084 41.872 81.1044 42.248 81.1044 42.712C81.1044 43.352 80.8404 43.936 80.3124 44.464C79.8004 44.992 79.0404 45.416 78.0324 45.736C77.0244 46.04 75.7844 46.192 74.3124 46.192ZM72.9204 37.96C73.7844 37.96 74.5124 37.76 75.1044 37.36C75.6964 36.944 75.9924 36.448 75.9924 35.872C75.9924 35.456 75.8484 35.12 75.5604 34.864C75.2724 34.608 74.8564 34.48 74.3124 34.48C73.7524 34.48 73.2324 34.592 72.7524 34.816C72.2724 35.024 71.8884 35.296 71.6004 35.632C71.3124 35.968 71.1684 36.344 71.1684 36.76C71.1684 37.144 71.3204 37.44 71.6244 37.648C71.9444 37.856 72.3764 37.96 72.9204 37.96ZM86.0879 32.344H85.8239C85.6799 31.704 85.6079 31.112 85.6079 30.568C85.6079 29.368 85.9519 28.424 86.6399 27.736C87.3439 27.048 88.5199 26.704 90.1679 26.704C91.2559 26.704 92.0399 26.88 92.5199 27.232C92.9999 27.568 93.2399 28.072 93.2399 28.744C93.2399 29.896 92.6239 30.536 91.3919 30.664C90.9119 30.696 90.5439 30.768 90.2879 30.88C90.0319 30.992 89.8479 31.168 89.7359 31.408C89.6399 31.648 89.5839 31.992 89.5679 32.44L89.2799 32.392C89.5519 32.248 89.8639 32.136 90.2159 32.056C90.5839 31.976 90.9439 31.936 91.2959 31.936C92.0799 31.936 92.7119 32.112 93.1919 32.464C93.6879 32.8 93.9359 33.376 93.9359 34.192C93.9359 34.976 93.6799 35.568 93.1679 35.968C92.6559 36.368 92.0239 36.568 91.2719 36.568C90.9839 36.568 90.6799 36.544 90.3599 36.496C90.0399 36.448 89.7279 36.376 89.4239 36.28L89.5439 35.992C89.7519 36.648 89.9279 37.368 90.0719 38.152C90.2319 38.92 90.3519 39.696 90.4319 40.48C90.5279 41.248 90.5759 41.968 90.5759 42.64C90.5759 43.28 90.4719 43.88 90.2639 44.44C90.0559 44.984 89.7359 45.424 89.3039 45.76C88.8719 46.08 88.3279 46.24 87.6719 46.24C86.6319 46.24 85.8879 45.92 85.4399 45.28C85.0079 44.64 84.7919 43.848 84.7919 42.904C84.7919 42.264 84.8319 41.552 84.9119 40.768C84.9919 39.968 85.1119 39.144 85.2719 38.296C85.4479 37.448 85.6559 36.624 85.8959 35.824L86.3279 35.968C85.7359 36.368 84.9599 36.568 83.9999 36.568C83.2159 36.568 82.6079 36.392 82.1759 36.04C81.7599 35.688 81.5519 35.152 81.5519 34.432C81.5519 33.664 81.7919 33.08 82.2719 32.68C82.7519 32.264 83.3999 32.056 84.2159 32.056C84.5839 32.056 84.9279 32.088 85.2479 32.152C85.5679 32.2 85.8479 32.264 86.0879 32.344ZM94.8763 35.848C94.8763 34.072 95.0843 32.792 95.5003 32.008C95.9323 31.224 96.5243 30.832 97.2763 30.832C97.8043 30.832 98.2203 31.008 98.5243 31.36C98.8443 31.696 99.0683 32.12 99.1963 32.632C99.3403 33.128 99.4123 33.632 99.4123 34.144L99.2923 34.096C99.5643 33.232 99.9723 32.488 100.516 31.864C101.076 31.24 101.748 30.928 102.532 30.928C103.556 30.928 104.308 31.336 104.788 32.152C105.268 32.952 105.508 33.952 105.508 35.152C105.508 36.752 105.276 37.872 104.812 38.512C104.348 39.152 103.732 39.472 102.964 39.472C102.372 39.472 101.94 39.296 101.668 38.944C101.396 38.576 101.292 38.008 101.356 37.24C101.388 36.584 101.356 36.136 101.26 35.896C101.164 35.656 101.012 35.536 100.804 35.536C100.532 35.536 100.324 35.696 100.18 36.016C100.036 36.336 99.9643 36.76 99.9643 37.288C99.9643 37.608 100.004 38.016 100.084 38.512C100.164 38.992 100.252 39.52 100.348 40.096C100.444 40.672 100.532 41.248 100.612 41.824C100.692 42.384 100.732 42.904 100.732 43.384C100.732 44.344 100.516 45.032 100.084 45.448C99.6523 45.848 99.0523 46.048 98.2843 46.048C97.5323 46.048 96.9243 45.848 96.4603 45.448C95.9963 45.048 95.6763 44.392 95.5003 43.48C95.4043 42.856 95.3003 42.096 95.1883 41.2C95.0923 40.304 95.0123 39.376 94.9482 38.416C94.9003 37.456 94.8763 36.6 94.8763 35.848ZM114.109 46.192C112.189 46.192 110.661 45.928 109.525 45.4C108.389 44.872 107.565 44.112 107.053 43.12C106.541 42.128 106.285 40.944 106.285 39.568C106.285 37.824 106.637 36.344 107.341 35.128C108.061 33.896 109.037 32.952 110.269 32.296C111.517 31.64 112.925 31.312 114.493 31.312C116.365 31.312 117.733 31.696 118.597 32.464C119.477 33.232 119.917 34.24 119.917 35.488C119.917 36.48 119.645 37.336 119.101 38.056C118.573 38.776 117.829 39.336 116.869 39.736C115.925 40.12 114.829 40.312 113.581 40.312C112.989 40.312 112.405 40.264 111.829 40.168C111.269 40.056 110.757 39.912 110.293 39.736L110.869 38.464C110.821 38.848 110.797 39.232 110.797 39.616C110.797 40.416 111.077 40.984 111.637 41.32C112.197 41.656 112.973 41.824 113.965 41.824C114.861 41.824 115.613 41.736 116.221 41.56C116.829 41.368 117.357 41.184 117.805 41.008C118.269 40.832 118.701 40.744 119.101 40.744C119.373 40.744 119.645 40.816 119.917 40.96C120.205 41.088 120.437 41.296 120.613 41.584C120.805 41.872 120.901 42.248 120.901 42.712C120.901 43.352 120.637 43.936 120.109 44.464C119.597 44.992 118.837 45.416 117.829 45.736C116.821 46.04 115.581 46.192 114.109 46.192ZM112.717 37.96C113.581 37.96 114.309 37.76 114.901 37.36C115.493 36.944 115.789 36.448 115.789 35.872C115.789 35.456 115.645 35.12 115.357 34.864C115.069 34.608 114.653 34.48 114.109 34.48C113.549 34.48 113.029 34.592 112.549 34.816C112.069 35.024 111.685 35.296 111.397 35.632C111.109 35.968 110.965 36.344 110.965 36.76C110.965 37.144 111.117 37.44 111.421 37.648C111.741 37.856 112.173 37.96 112.717 37.96ZM128.741 30.976C130.389 30.976 131.573 31.256 132.293 31.816C133.029 32.36 133.397 33.072 133.397 33.952C133.397 34.48 133.213 34.92 132.845 35.272C132.493 35.624 131.989 35.8 131.333 35.8C130.837 35.8 130.301 35.72 129.725 35.56C129.149 35.4 128.493 35.32 127.757 35.32C127.293 35.32 126.941 35.408 126.701 35.584C126.461 35.76 126.341 35.984 126.341 36.256C126.341 36.528 126.461 36.752 126.701 36.928C126.941 37.104 127.445 37.232 128.213 37.312C129.413 37.424 130.421 37.624 131.237 37.912C132.053 38.2 132.669 38.64 133.085 39.232C133.501 39.808 133.709 40.608 133.709 41.632C133.709 43.184 133.141 44.32 132.005 45.04C130.869 45.744 129.285 46.096 127.253 46.096C125.893 46.096 124.797 45.968 123.965 45.712C123.149 45.456 122.557 45.096 122.189 44.632C121.821 44.168 121.637 43.624 121.637 43C121.637 42.424 121.829 41.976 122.213 41.656C122.613 41.32 123.077 41.152 123.605 41.152C123.973 41.152 124.365 41.2 124.781 41.296C125.197 41.392 125.637 41.496 126.101 41.608C126.565 41.72 127.037 41.776 127.517 41.776C128.397 41.776 128.837 41.512 128.837 40.984C128.837 40.808 128.789 40.656 128.693 40.528C128.597 40.4 128.413 40.288 128.141 40.192C127.869 40.08 127.453 39.992 126.893 39.928C125.837 39.816 124.925 39.64 124.157 39.4C123.405 39.144 122.813 38.752 122.381 38.224C121.965 37.68 121.757 36.936 121.757 35.992C121.757 34.504 122.365 33.296 123.581 32.368C124.797 31.44 126.517 30.976 128.741 30.976ZM138.387 26.992C139.187 26.992 139.739 27.232 140.043 27.712C140.363 28.176 140.523 28.872 140.523 29.8C140.523 30.472 140.475 31.24 140.379 32.104C140.299 32.968 140.179 33.752 140.019 34.456H139.875C140.371 33.624 141.011 32.952 141.795 32.44C142.579 31.928 143.411 31.672 144.291 31.672C145.139 31.672 145.891 31.88 146.547 32.296C147.219 32.712 147.763 33.352 148.179 34.216C148.547 34.952 148.819 35.824 148.995 36.832C149.171 37.84 149.259 38.8 149.259 39.712C149.259 41.2 149.123 42.384 148.851 43.264C148.595 44.144 148.235 44.784 147.771 45.184C147.307 45.568 146.763 45.76 146.139 45.76C144.635 45.76 143.883 44.808 143.883 42.904C143.883 42.152 143.923 41.392 144.003 40.624C144.099 39.84 144.147 39.128 144.147 38.488C144.147 37.688 144.011 37.096 143.739 36.712C143.483 36.312 143.115 36.112 142.635 36.112C142.059 36.112 141.587 36.384 141.219 36.928C140.867 37.472 140.691 38.224 140.691 39.184C140.691 39.776 140.731 40.384 140.811 41.008C140.907 41.632 140.955 42.32 140.955 43.072C140.955 44.192 140.723 45 140.259 45.496C139.795 45.976 139.203 46.216 138.483 46.216C138.003 46.216 137.571 46.144 137.187 46C136.803 45.84 136.475 45.528 136.203 45.064C135.947 44.584 135.747 43.888 135.603 42.976C135.507 42.384 135.419 41.696 135.339 40.912C135.259 40.128 135.187 39.312 135.123 38.464C135.075 37.6 135.027 36.76 134.979 35.944C134.947 35.128 134.931 34.4 134.931 33.76C134.931 31.408 135.227 29.696 135.819 28.624C136.427 27.536 137.283 26.992 138.387 26.992Z" fill="#687350"/>
<path d="M39.4064 38.7479C37.5076 38.7479 35.6067 38.7723 33.7081 38.7479C32.4814 38.7322 31.2924 37.9732 30.2237 37.4389C29.0988 36.8765 28.0354 36.2235 26.9317 35.6293C24.8325 34.4989 23.3885 32.7878 21.5607 31.3363C20.7468 30.6899 19.4816 28.9202 19.4816 27.8326" stroke="#01291B" stroke-width="3" stroke-linecap="round"/>
<path d="M19.4816 27.8327C19.4816 23.9933 19.1351 20.2313 19.1351 16.3976C19.1351 13.7828 20.3238 12.0903 22.0805 10.3336C22.7049 9.70921 22.9374 9.80727 23.5724 10.2469C24.2603 10.7232 25.1617 10.9877 25.6323 11.7196C26.5234 13.1058 27.1114 14.4877 27.413 16.1089C27.829 18.345 26.797 20.2885 25.9788 22.2884C25.3691 23.7788 24.3404 25.0797 23.5051 26.4466C22.8892 27.4544 21.4375 28.6823 20.3479 29.0455" stroke="#01291B" stroke-width="3" stroke-linecap="round"/>
<path d="M20.3479 29.0455C17.9231 26.6207 16.1174 23.1817 12.4935 22.4232C10.6188 22.0308 8.57633 21.4221 6.6605 21.4221C5.96747 21.4221 5.27443 21.4221 4.5814 21.4221C3.91688 21.4221 3.46499 21.6961 2.84881 21.7686C1.19795 21.9629 2.34664 23.432 3.02207 24.2039C3.7359 25.0197 4.03794 26.1208 4.96642 26.7931C6.18192 27.6733 7.29021 28.502 8.60485 29.2573C12.0962 31.2629 16.2558 30.4316 20.0014 30.4316" stroke="#01291B" stroke-width="3" stroke-linecap="round"/>
</svg>
